<svg xmlns="http://www.w3.org/2000/svg" viewBox="0 0 100 100" width="100%" height="100%">
  <rect width="100" height="100" fill="#ffffff" />
  <!-- Top Left -->
  <rect x="10" y="10" width="25" height="25" fill="none" stroke="#000" stroke-width="3"/>
  <rect x="15" y="15" width="15" height="15" fill="#000"/>
  <!-- Top Right -->
  <rect x="65" y="10" width="25" height="25" fill="none" stroke="#000" stroke-width="3"/>
  <rect x="70" y="15" width="15" height="15" fill="#000"/>
  <!-- Bottom Left -->
  <rect x="10" y="65" width="25" height="25" fill="none" stroke="#000" stroke-width="3"/>
  <rect x="15" y="70" width="15" height="15" fill="#000"/>
  
  <!-- Random inner dots -->
  <rect x="45" y="10" width="10" height="10" fill="#000"/>
  <rect x="45" y="25" width="10" height="10" fill="#000"/>
  <rect x="10" y="45" width="10" height="10" fill="#000"/>
  <rect x="25" y="45" width="25" height="10" fill="#000"/>
  <rect x="60" y="45" width="30" height="10" fill="#000"/>
  <rect x="45" y="60" width="10" height="20" fill="#000"/>
  <rect x="60" y="60" width="15" height="15" fill="#000"/>
  <rect x="80" y="65" width="10" height="10" fill="#000"/>
  <rect x="80" y="80" width="10" height="10" fill="#000"/>
  <rect x="60" y="85" width="10" height="5" fill="#000"/>
  <rect x="45" y="85" width="5" height="5" fill="#000"/>
</svg>
